<svg width="21" height="21" viewBox="0 0 21 21" fill="none" xmlns="http://www.w3.org/2000/svg">
<g clip-path="url(#clip0_174_2531)">
<path d="M0.318359 12.6077V2.73252C0.318359 2.05084 0.870988 1.49813 1.55275 1.49813H5.25592V13.842H1.55275C0.870988 13.842 0.318359 13.2894 0.318359 12.6077Z" fill="#2C2C30"/>
<path d="M17.789 12.6079H14.1425C13.8237 12.6079 13.6639 12.8207 13.6103 12.9123C13.5566 13.0033 13.4482 13.2462 13.6025 13.5247L14.8881 15.8398C15.1701 16.3467 15.1991 16.9428 14.9682 17.475C14.7374 18.0078 14.2817 18.3941 13.7182 18.5346L12.8117 18.7612C12.5911 18.8166 12.3572 18.7461 12.2035 18.5756L7.28162 13.1076C6.77111 12.5392 6.49023 11.8063 6.49023 11.0432V4.58439C6.49023 2.88288 7.8747 1.49841 9.57621 1.49841L15.7162 1.49901C17.1025 1.49901 18.3266 2.43264 18.6925 3.7689L20.0101 9.81549C20.0486 9.98365 20.0685 10.156 20.0685 10.3284C20.0685 11.5851 19.0457 12.6079 17.789 12.6079L17.789 12.6079Z" fill="#2C2C30"/>
</g>
<defs>
<clipPath id="clip0_174_2531">
<rect width="19.7503" height="19.7503" fill="white" transform="matrix(1 0 0 -1 0.318359 20.0142)"/>
</clipPath>
</defs>
</svg>
