<svg width="21" height="21" viewBox="0 0 21 21" fill="none" xmlns="http://www.w3.org/2000/svg">
<g clip-path="url(#clip0_174_2520)">
<path d="M0.494141 7.67018V17.5453C0.494141 18.227 1.04677 18.7797 1.72853 18.7797H5.4317V6.43579H1.72853C1.04677 6.43579 0.494141 6.98842 0.494141 7.67018Z" fill="#5D5D66"/>
<path d="M17.9648 7.67016H14.3183C13.9994 7.67016 13.8397 7.4574 13.7861 7.36578C13.7324 7.27477 13.6239 7.03187 13.7782 6.75341L15.0639 4.43832C15.3459 3.93142 15.3749 3.33532 15.144 2.80311C14.9132 2.2703 14.4575 1.88395 13.8939 1.74351L12.9874 1.51688C12.7668 1.46143 12.533 1.53195 12.3793 1.70253L7.4574 7.17049C6.94689 7.73887 6.66602 8.47179 6.66602 9.23484V15.6937C6.66602 17.3952 8.05048 18.7797 9.75199 18.7797L15.892 18.7791C17.2783 18.7791 18.5024 17.8454 18.8683 16.5092L20.1858 10.4626C20.2244 10.2944 20.2443 10.122 20.2443 9.94967C20.2443 8.69297 19.2215 7.67014 17.9648 7.67014L17.9648 7.67016Z" fill="#5D5D66"/>
</g>
<defs>
<clipPath id="clip0_174_2520">
<rect width="19.7503" height="19.7503" fill="white" transform="translate(0.494141 0.263916)"/>
</clipPath>
</defs>
</svg>
