<svg width="55" height="55" viewBox="0 0 55 55" fill="none" xmlns="http://www.w3.org/2000/svg">
<path d="M31.3476 50.3118C31.4262 51.9091 30.1947 53.2682 28.5974 53.3469C27 53.4256 25.6409 52.1941 25.5622 50.5968C25.5493 50.3338 25.5722 50.1328 25.6123 49.8965C28.2788 34.9593 27.5228 19.612 23.4013 5.00915C23.3427 4.79492 23.2962 4.59366 23.2826 4.3172C23.2039 2.71989 24.4355 1.36076 26.0328 1.28208C27.6301 1.2034 28.9893 2.43492 29.068 4.03224C29.0809 4.29516 29.0574 4.49673 29.0179 4.73249C26.3514 19.6697 27.1073 35.017 31.2289 49.6198C31.287 49.8351 31.334 50.0359 31.3476 50.3118Z" fill="white"/>
<path d="M42.3058 45.2153C43.1726 46.5593 42.7854 48.3517 41.442 49.2185C40.0985 50.0853 38.3055 49.6982 37.4387 48.3547C37.2958 48.1336 37.2156 47.9476 37.132 47.7232C31.9726 33.4538 23.6443 20.5409 12.7736 9.9552C12.6161 9.79908 12.4745 9.64793 12.3248 9.41575C11.458 8.07175 11.8451 6.27928 13.1886 5.41251C14.5321 4.54573 16.3251 4.93287 17.1919 6.27635C17.3348 6.49738 17.4155 6.68388 17.4985 6.90786C22.6579 21.1772 30.9863 34.0901 41.857 44.6758C42.0156 44.8324 42.1561 44.9831 42.3058 45.2153Z" fill="white"/>
<path d="M49.2475 35.3214C50.6701 36.0519 51.231 37.7977 50.5005 39.2204C49.77 40.6431 48.0242 41.204 46.6016 40.4735C46.3675 40.3529 46.205 40.2326 46.0201 40.0799C34.4173 30.3021 20.7484 23.2831 6.04111 19.551C5.82642 19.4942 5.62879 19.434 5.3825 19.3079C3.95983 18.5773 3.3989 16.8316 4.12942 15.4089C4.85994 13.9862 6.60574 13.4253 8.02842 14.1558C8.26242 14.2763 8.42546 14.3972 8.60936 14.5494C20.2122 24.3272 33.881 31.3462 48.5883 35.0783C48.8046 35.135 49.0012 35.1952 49.2475 35.3214Z" fill="white"/>
<path d="M50.3121 23.2825C51.9094 23.2038 53.2686 24.4354 53.3472 26.0327C53.4259 27.63 52.1944 28.9891 50.5971 29.0678C50.3341 29.0808 50.1331 29.0578 49.8968 29.0178C34.9596 26.3513 19.6123 27.1072 5.00946 31.2288C4.79524 31.2874 4.59399 31.3338 4.31753 31.3474C2.72021 31.4261 1.36105 30.1946 1.28238 28.5972C1.2037 26.9999 2.43524 25.6408 4.03256 25.5621C4.29548 25.5492 4.49702 25.5721 4.7328 25.6121C19.67 28.2786 35.0173 27.5227 49.6201 23.4011C49.8354 23.343 50.0362 23.2961 50.3121 23.2825Z" fill="white"/>
<path d="M45.2156 12.3251C46.5596 11.4583 48.3521 11.8455 49.2188 13.1889C50.0856 14.5324 49.6985 16.3254 48.355 17.1922C48.134 17.3351 47.9479 17.4153 47.7235 17.4989C33.4541 22.6582 20.5413 30.9866 9.95552 41.8573C9.7994 42.0148 9.64824 42.1564 9.41606 42.3061C8.07206 43.1729 6.27958 42.7858 5.4128 41.4423C4.54603 40.0988 4.93317 38.3058 6.27665 37.439C6.49768 37.2961 6.68419 37.2154 6.90817 37.1323C21.1775 31.973 34.0904 23.6446 44.6761 12.7739C44.8327 12.6153 44.9834 12.4748 45.2156 12.3251Z" fill="white"/>
<path d="M35.3222 5.38342C36.0527 3.96074 37.7985 3.39982 39.2212 4.13034C40.6438 4.86086 41.2048 6.60663 40.4742 8.0293C40.3537 8.26331 40.2334 8.4258 40.0806 8.61024C30.3029 20.2131 23.2838 33.8819 19.5517 48.5892C19.4955 48.8039 19.4348 49.0015 19.3086 49.2478C18.5781 50.6705 16.8323 51.2314 15.4096 50.5009C13.987 49.7704 13.426 48.0246 14.1566 46.6019C14.2771 46.3679 14.398 46.2049 14.5502 46.021C24.328 34.4182 31.347 20.7493 35.0791 6.04201C35.1358 5.82628 35.196 5.62971 35.3222 5.38342Z" fill="white"/>
</svg>
